<mxfile host="app.diagrams.net" agent="Mozilla/5.0 (Macintosh; Intel Mac OS X 10_15_7) AppleWebKit/537.36 (KHTML, like Gecko) Chrome/134.0.0.0 Safari/537.36" version="26.1.1">
  <diagram name="Page-1" id="Ov2PyWwaEd_RtvEf2wgF">
    <mxGraphModel dx="1461" dy="864" grid="1" gridSize="10" guides="1" tooltips="1" connect="1" arrows="1" fold="1" page="1" pageScale="1" pageWidth="827" pageHeight="1169" math="0" shadow="0">
      <root>
        <mxCell id="0" />
        <mxCell id="1" parent="0" />
        <mxCell id="nlx9ms9LXDlgyE4jDHa2-3" value="" style="rounded=0;whiteSpace=wrap;html=1;" parent="1" vertex="1">
          <mxGeometry x="250" y="280" width="770" height="440" as="geometry" />
        </mxCell>
        <mxCell id="nlx9ms9LXDlgyE4jDHa2-35" value="" style="rounded=1;whiteSpace=wrap;html=1;" parent="1" vertex="1">
          <mxGeometry x="360" y="390" width="590" height="260" as="geometry" />
        </mxCell>
        <mxCell id="nlx9ms9LXDlgyE4jDHa2-17" style="edgeStyle=orthogonalEdgeStyle;rounded=0;orthogonalLoop=1;jettySize=auto;html=1;exitX=0;exitY=0.5;exitDx=0;exitDy=0;entryX=1;entryY=0.5;entryDx=0;entryDy=0;" parent="1" source="nlx9ms9LXDlgyE4jDHa2-13" target="nlx9ms9LXDlgyE4jDHa2-4" edge="1">
          <mxGeometry relative="1" as="geometry">
            <Array as="points">
              <mxPoint x="780" y="345" />
              <mxPoint x="780" y="500" />
            </Array>
          </mxGeometry>
        </mxCell>
        <mxCell id="nlx9ms9LXDlgyE4jDHa2-36" value="&lt;span style=&quot;color: rgba(0, 0, 0, 0); font-family: monospace; font-size: 0px; text-align: start; background-color: rgb(251, 251, 251);&quot;&gt;%3CmxGraphModel%3E%3Croot%3E%3CmxCell%20id%3D%220%22%2F%3E%3CmxCell%20id%3D%221%22%20parent%3D%220%22%2F%3E%3CmxCell%20id%3D%222%22%20value%3D%22initiates%26lt%3Bdiv%26gt%3B%26amp%3Bnbsp%3Binterview%26lt%3B%2Fdiv%26gt%3B%22%20style%3D%22edgeLabel%3Bhtml%3D1%3Balign%3Dcenter%3BverticalAlign%3Dmiddle%3Bresizable%3D0%3Bpoints%3D%5B%5D%3B%22%20vertex%3D%221%22%20connectable%3D%220%22%20parent%3D%221%22%3E%3CmxGeometry%20x%3D%22887%22%20y%3D%22229.76923076923072%22%20as%3D%22geometry%22%2F%3E%3C%2FmxCell%3E%3C%2Froot%3E%3C%2FmxGraphModel%3E&lt;/span&gt;" style="edgeLabel;html=1;align=center;verticalAlign=middle;resizable=0;points=[];" parent="nlx9ms9LXDlgyE4jDHa2-17" vertex="1" connectable="0">
          <mxGeometry x="-0.1577" y="-3" relative="1" as="geometry">
            <mxPoint as="offset" />
          </mxGeometry>
        </mxCell>
        <mxCell id="nlx9ms9LXDlgyE4jDHa2-37" value="iniitiates interview" style="edgeLabel;html=1;align=center;verticalAlign=middle;resizable=0;points=[];" parent="nlx9ms9LXDlgyE4jDHa2-17" vertex="1" connectable="0">
          <mxGeometry x="-0.1022" y="3" relative="1" as="geometry">
            <mxPoint as="offset" />
          </mxGeometry>
        </mxCell>
        <mxCell id="nlx9ms9LXDlgyE4jDHa2-4" value="Interview dashboard" style="rounded=1;whiteSpace=wrap;html=1;" parent="1" vertex="1">
          <mxGeometry x="530" y="470" width="120" height="60" as="geometry" />
        </mxCell>
        <mxCell id="nlx9ms9LXDlgyE4jDHa2-6" value="UI" style="rounded=1;whiteSpace=wrap;html=1;" parent="1" vertex="1">
          <mxGeometry x="530" y="130" width="120" height="60" as="geometry" />
        </mxCell>
        <mxCell id="nlx9ms9LXDlgyE4jDHa2-7" value="" style="endArrow=classic;html=1;rounded=0;exitX=0.5;exitY=0;exitDx=0;exitDy=0;entryX=0.5;entryY=1;entryDx=0;entryDy=0;" parent="1" source="nlx9ms9LXDlgyE4jDHa2-12" target="nlx9ms9LXDlgyE4jDHa2-6" edge="1">
          <mxGeometry width="50" height="50" relative="1" as="geometry">
            <mxPoint x="530" y="550" as="sourcePoint" />
            <mxPoint x="800" y="180" as="targetPoint" />
          </mxGeometry>
        </mxCell>
        <mxCell id="nlx9ms9LXDlgyE4jDHa2-11" value="" style="endArrow=classic;html=1;rounded=0;exitX=0.5;exitY=0;exitDx=0;exitDy=0;entryX=0.5;entryY=1;entryDx=0;entryDy=0;" parent="1" source="nlx9ms9LXDlgyE4jDHa2-4" target="nlx9ms9LXDlgyE4jDHa2-12" edge="1">
          <mxGeometry width="50" height="50" relative="1" as="geometry">
            <mxPoint x="590" y="470" as="sourcePoint" />
            <mxPoint x="590" y="150" as="targetPoint" />
          </mxGeometry>
        </mxCell>
        <mxCell id="nlx9ms9LXDlgyE4jDHa2-12" value="Track&amp;nbsp;&lt;div&gt;Interview&lt;/div&gt;" style="text;html=1;align=center;verticalAlign=middle;whiteSpace=wrap;rounded=0;" parent="1" vertex="1">
          <mxGeometry x="560" y="315" width="60" height="30" as="geometry" />
        </mxCell>
        <mxCell id="nlx9ms9LXDlgyE4jDHa2-13" value="Chatbot adapter" style="rounded=1;whiteSpace=wrap;html=1;strokeColor=default;gradientColor=none;dashed=1;" parent="1" vertex="1">
          <mxGeometry x="827" y="315" width="120" height="60" as="geometry" />
        </mxCell>
        <mxCell id="nlx9ms9LXDlgyE4jDHa2-18" style="edgeStyle=orthogonalEdgeStyle;rounded=0;orthogonalLoop=1;jettySize=auto;html=1;exitX=0.5;exitY=1;exitDx=0;exitDy=0;entryX=0.5;entryY=0;entryDx=0;entryDy=0;" parent="1" source="nlx9ms9LXDlgyE4jDHa2-14" target="nlx9ms9LXDlgyE4jDHa2-13" edge="1">
          <mxGeometry relative="1" as="geometry" />
        </mxCell>
        <mxCell id="nlx9ms9LXDlgyE4jDHa2-14" value="Chatbot" style="rounded=1;whiteSpace=wrap;html=1;" parent="1" vertex="1">
          <mxGeometry x="827" y="130" width="120" height="60" as="geometry" />
        </mxCell>
        <mxCell id="nlx9ms9LXDlgyE4jDHa2-23" style="edgeStyle=orthogonalEdgeStyle;rounded=0;orthogonalLoop=1;jettySize=auto;html=1;exitX=0;exitY=0.5;exitDx=0;exitDy=0;entryX=1;entryY=0.5;entryDx=0;entryDy=0;" parent="1" source="nlx9ms9LXDlgyE4jDHa2-22" target="nlx9ms9LXDlgyE4jDHa2-21" edge="1">
          <mxGeometry relative="1" as="geometry">
            <mxPoint x="200" y="140" as="targetPoint" />
          </mxGeometry>
        </mxCell>
        <mxCell id="nlx9ms9LXDlgyE4jDHa2-21" value="Greenhouse" style="rounded=1;whiteSpace=wrap;html=1;" parent="1" vertex="1">
          <mxGeometry x="60" y="315" width="120" height="60" as="geometry" />
        </mxCell>
        <mxCell id="nlx9ms9LXDlgyE4jDHa2-24" style="edgeStyle=orthogonalEdgeStyle;rounded=0;orthogonalLoop=1;jettySize=auto;html=1;exitX=1;exitY=0.5;exitDx=0;exitDy=0;entryX=0;entryY=0.5;entryDx=0;entryDy=0;" parent="1" source="nlx9ms9LXDlgyE4jDHa2-22" target="nlx9ms9LXDlgyE4jDHa2-4" edge="1">
          <mxGeometry relative="1" as="geometry" />
        </mxCell>
        <mxCell id="nlx9ms9LXDlgyE4jDHa2-25" value="get interview feedback/updates&lt;div&gt;and populate&lt;/div&gt;" style="edgeLabel;html=1;align=center;verticalAlign=middle;resizable=0;points=[];" parent="nlx9ms9LXDlgyE4jDHa2-24" vertex="1" connectable="0">
          <mxGeometry x="-0.2514" relative="1" as="geometry">
            <mxPoint x="5" y="34" as="offset" />
          </mxGeometry>
        </mxCell>
        <mxCell id="nlx9ms9LXDlgyE4jDHa2-22" value="greenhouse adapter" style="rounded=1;whiteSpace=wrap;html=1;dashed=1;" parent="1" vertex="1">
          <mxGeometry x="280" y="315" width="120" height="60" as="geometry" />
        </mxCell>
        <mxCell id="nlx9ms9LXDlgyE4jDHa2-28" style="edgeStyle=orthogonalEdgeStyle;rounded=0;orthogonalLoop=1;jettySize=auto;html=1;exitX=0.5;exitY=0;exitDx=0;exitDy=0;entryX=0.5;entryY=1;entryDx=0;entryDy=0;" parent="1" source="nlx9ms9LXDlgyE4jDHa2-26" target="nlx9ms9LXDlgyE4jDHa2-4" edge="1">
          <mxGeometry relative="1" as="geometry" />
        </mxCell>
        <mxCell id="nlx9ms9LXDlgyE4jDHa2-29" value="Updates scehduled interview" style="edgeLabel;html=1;align=center;verticalAlign=middle;resizable=0;points=[];" parent="nlx9ms9LXDlgyE4jDHa2-28" vertex="1" connectable="0">
          <mxGeometry x="0.2348" y="-1" relative="1" as="geometry">
            <mxPoint x="-1" y="-9" as="offset" />
          </mxGeometry>
        </mxCell>
        <mxCell id="nlx9ms9LXDlgyE4jDHa2-26" value="Scheduling service" style="rounded=1;whiteSpace=wrap;html=1;" parent="1" vertex="1">
          <mxGeometry x="530" y="800" width="120" height="60" as="geometry" />
        </mxCell>
        <mxCell id="nlx9ms9LXDlgyE4jDHa2-31" value="" style="shape=cylinder3;whiteSpace=wrap;html=1;boundedLbl=1;backgroundOutline=1;size=15;" parent="1" vertex="1">
          <mxGeometry x="280" y="550" width="60" height="80" as="geometry" />
        </mxCell>
        <mxCell id="nlx9ms9LXDlgyE4jDHa2-33" style="edgeStyle=orthogonalEdgeStyle;rounded=0;orthogonalLoop=1;jettySize=auto;html=1;exitX=0;exitY=1;exitDx=0;exitDy=0;entryX=1;entryY=0.5;entryDx=0;entryDy=0;entryPerimeter=0;" parent="1" source="nlx9ms9LXDlgyE4jDHa2-4" target="nlx9ms9LXDlgyE4jDHa2-31" edge="1">
          <mxGeometry relative="1" as="geometry" />
        </mxCell>
        <mxCell id="nlx9ms9LXDlgyE4jDHa2-34" value="save/update&lt;div&gt;interview details&lt;/div&gt;" style="edgeLabel;html=1;align=center;verticalAlign=middle;resizable=0;points=[];" parent="nlx9ms9LXDlgyE4jDHa2-33" vertex="1" connectable="0">
          <mxGeometry x="0.3382" y="4" relative="1" as="geometry">
            <mxPoint x="-1" as="offset" />
          </mxGeometry>
        </mxCell>
        <mxCell id="FiV1SdKl1gSmYtw9qBP4-1" value="" style="verticalLabelPosition=bottom;html=1;verticalAlign=top;align=center;strokeColor=none;fillColor=#00BEF2;shape=mxgraph.azure.scheduler;pointerEvents=1;" vertex="1" parent="1">
          <mxGeometry x="440" y="470" width="40" height="50" as="geometry" />
        </mxCell>
      </root>
    </mxGraphModel>
  </diagram>
</mxfile>
